<?xml version="1.0" encoding="utf-8" standalone="no"?>
<!DOCTYPE svg PUBLIC "-//W3C//DTD SVG 1.1//EN"
  "http://www.w3.org/Graphics/SVG/1.1/DTD/svg11.dtd">
<svg xmlns:xlink="http://www.w3.org/1999/xlink" width="542.304pt" height="296.208pt" viewBox="0 0 542.304 296.208" xmlns="http://www.w3.org/2000/svg" version="1.1">
 <metadata>
  <rdf:RDF xmlns:dc="http://purl.org/dc/elements/1.1/" xmlns:cc="http://creativecommons.org/ns#" xmlns:rdf="http://www.w3.org/1999/02/22-rdf-syntax-ns#">
   <cc:Work>
    <dc:type rdf:resource="http://purl.org/dc/dcmitype/StillImage"/>
    <dc:date>2022-09-12T12:16:19.060337</dc:date>
    <dc:format>image/svg+xml</dc:format>
    <dc:creator>
     <cc:Agent>
      <dc:title>Matplotlib v3.5.2, https://matplotlib.org/</dc:title>
     </cc:Agent>
    </dc:creator>
   </cc:Work>
  </rdf:RDF>
 </metadata>
 <defs>
  <style type="text/css">*{stroke-linejoin: round; stroke-linecap: butt}</style>
 </defs>
 <g id="figure_1">
  <g id="patch_1">
   <path d="M 0 296.208 
L 542.304 296.208 
L 542.304 0 
L 0 0 
z
" style="fill: #ffffff"/>
  </g>
  <g id="axes_1">
   <g id="line2d_1">
    <path d="M 277.9308 149.58504 
L 277.192212 148.215189 
L 277.020194 147.393279 
L 277.106091 146.662692 
L 277.443942 145.840781 
L 278.815463 143.101079 
L 278.81332 142.370492 
L 278.592426 141.639905 
L 277.982415 140.544025 
L 277.188858 139.08285 
L 277.024816 138.352263 
L 277.085342 137.621676 
L 277.401071 136.799766 
L 278.828758 133.877417 
L 278.795221 133.14683 
L 278.503938 132.32492 
L 277.748421 131.046392 
L 277.185534 129.950512 
L 277.024159 129.219925 
L 277.087514 128.489338 
L 277.405753 127.667427 
L 278.829754 124.745079 
L 278.793369 124.014492 
L 278.499463 123.192581 
L 277.687062 121.82273 
L 277.150939 120.72685 
L 277.019301 119.996262 
L 277.113598 119.265675 
L 277.458586 118.443765 
L 278.804794 115.795387 
L 278.822644 115.0648 
L 278.619431 114.334212 
L 278.079325 113.329655 
L 277.178974 111.685834 
L 277.022952 110.955247 
L 277.09196 110.22466 
L 277.415179 109.40275 
L 278.820791 106.571725 
L 278.807223 105.841137 
L 278.576415 105.11055 
L 277.959486 104.01467 
L 277.209416 102.644819 
L 277.022402 101.822908 
L 277.094233 101.092321 
L 277.419923 100.270411 
L 278.822035 97.439386 
L 278.805612 96.708799 
L 278.572349 95.978212 
L 277.95375 94.882331 
L 277.205918 93.51248 
L 277.021889 92.69057 
L 277.096539 91.959983 
L 277.424687 91.138072 
L 278.823244 88.307047 
L 278.803967 87.57646 
L 278.525973 86.754549 
L 277.83344 85.567345 
L 277.202448 84.380141 
L 277.021411 83.558231 
L 277.098877 82.827644 
L 277.429471 82.005733 
L 278.824417 79.174708 
L 278.802286 78.444121 
L 278.521613 77.622211 
L 277.770965 76.343683 
L 277.166211 75.156479 
L 277.02097 74.425892 
L 277.101249 73.695305 
L 277.434275 72.873395 
L 278.812588 70.133693 
L 278.81616 69.403106 
L 278.600275 68.672519 
L 278.050949 67.667962 
L 277.195595 66.115464 
L 277.020564 65.293553 
L 277.103653 64.562966 
L 277.439098 63.741056 
L 278.814043 61.001354 
L 278.814758 60.270767 
L 278.596364 59.54018 
L 278.045259 58.535623 
L 277.930801 58.352976 
L 277.930801 58.352976 
" clip-path="url(#p622d0fa64d)" style="fill: none; stroke: #000000; stroke-width: 0.7; stroke-linecap: square"/>
   </g>
   <g id="line2d_2">
    <path d="M 277.930777 149.58504 
L 277.930823 149.58504 
L 277.930823 149.58504 
" clip-path="url(#p622d0fa64d)" style="fill: none; stroke: #000000; stroke-width: 5; stroke-linecap: square"/>
   </g>
   <g id="line2d_3">
    <path d="M 186.698736 218.009088 
L 369.162864 218.009088 
L 369.162864 218.009088 
" clip-path="url(#p622d0fa64d)" style="fill: none; stroke: #000000; stroke-width: 0.7; stroke-linecap: square"/>
   </g>
   <g id="line2d_4">
    <path d="M 186.698736 158.708246 
L 195.283134 160.048585 
L 203.136946 161.498513 
L 210.442817 163.069297 
L 217.566041 164.830382 
L 224.506618 166.777541 
L 231.629843 169.008992 
L 239.848947 171.827568 
L 257.200391 177.865771 
L 262.131854 179.289266 
L 266.33273 180.276238 
L 270.168312 180.948623 
L 273.638601 181.340541 
L 277.10889 181.509785 
L 280.579178 181.449134 
L 284.049467 181.161189 
L 287.702402 180.626013 
L 291.537985 179.834006 
L 295.738861 178.73924 
L 300.85297 177.163833 
L 307.793548 174.770214 
L 324.779698 168.829523 
L 332.085569 166.561756 
L 339.026146 164.638816 
L 345.966724 162.943474 
L 353.272595 161.389686 
L 360.943759 159.986631 
L 369.162864 158.708246 
L 369.162864 158.708246 
" clip-path="url(#p622d0fa64d)" style="fill: none; stroke: #000000; stroke-width: 0.7; stroke-linecap: square"/>
   </g>
   <g id="line2d_5">
    <path d="M 186.698736 84.406748 
L 196.196368 85.167007 
L 204.05018 86.012423 
L 210.625463 86.938563 
L 216.287514 87.959241 
L 221.03633 89.031208 
L 225.237205 90.196388 
L 229.072788 91.490257 
L 232.543076 92.902008 
L 235.648072 94.40906 
L 238.387773 95.974997 
L 240.944828 97.679357 
L 243.319236 99.51368 
L 245.693644 101.636639 
L 247.885406 103.898674 
L 250.077167 106.501077 
L 252.086281 109.232532 
L 254.095396 112.342093 
L 256.10451 115.876599 
L 258.113625 119.879251 
L 260.122739 124.381684 
L 262.314501 129.871054 
L 264.688909 136.437657 
L 268.707138 148.375052 
L 271.264193 155.612043 
L 272.908014 159.606339 
L 274.186541 162.140664 
L 275.282422 163.809486 
L 276.195656 164.794348 
L 276.926243 165.295634 
L 277.65683 165.53163 
L 278.387417 165.497835 
L 279.118004 165.194897 
L 279.848591 164.628578 
L 280.761825 163.566884 
L 281.675059 162.140664 
L 282.77094 160.002889 
L 284.049467 157.020289 
L 285.875935 152.100278 
L 288.98093 142.90539 
L 292.451219 132.829471 
L 294.825627 126.596783 
L 297.017388 121.457603 
L 299.026502 117.275926 
L 301.035617 113.575787 
L 303.044732 110.317056 
L 305.053846 107.453537 
L 307.245607 104.725724 
L 309.437369 102.355982 
L 311.811777 100.13384 
L 314.186185 98.215895 
L 316.74324 96.436051 
L 319.482941 94.80305 
L 322.40529 93.318956 
L 325.692932 91.908636 
L 329.16322 90.660283 
L 333.181449 89.459747 
L 337.564972 88.385158 
L 342.679082 87.369676 
L 348.523778 86.445867 
L 355.281709 85.609308 
L 363.318167 84.846226 
L 369.162864 84.406748 
L 369.162864 84.406748 
" clip-path="url(#p622d0fa64d)" style="fill: none; stroke: #000000; stroke-width: 0.7; stroke-linecap: square"/>
   </g>
   <g id="line2d_6">
    <path d="M 186.698736 190.017432 
L 207.703115 191.431353 
L 250.625107 194.408898 
L 262.314501 194.929265 
L 272.725367 195.170218 
L 282.588293 195.176358 
L 292.633865 194.959472 
L 303.592672 194.495684 
L 316.74324 193.706507 
L 338.478206 192.139174 
L 365.692575 190.235851 
L 369.162864 190.017432 
L 369.162864 190.017432 
" clip-path="url(#p622d0fa64d)" style="fill: none; stroke: #000000; stroke-width: 0.7; stroke-linecap: square"/>
   </g>
   <g id="line2d_7">
    <path d="M 186.698736 121.482306 
L 194.369901 122.508683 
L 201.127831 123.629833 
L 207.155175 124.852288 
L 212.451931 126.146442 
L 217.200747 127.524097 
L 221.58427 129.018213 
L 225.602499 130.612678 
L 229.438081 132.371691 
L 233.091017 134.297486 
L 236.561306 136.38648 
L 239.848947 138.627732 
L 243.136589 141.149469 
L 246.241585 143.806009 
L 249.529227 146.91723 
L 252.999515 150.520259 
L 257.017744 155.028547 
L 266.150083 165.436585 
L 268.524491 167.752957 
L 270.533606 169.431489 
L 272.360073 170.674805 
L 274.003894 171.526098 
L 275.465069 172.048065 
L 276.926243 172.335504 
L 278.387417 172.381156 
L 279.848591 172.183858 
L 281.309765 171.748616 
L 282.77094 171.086289 
L 284.414761 170.089887 
L 286.241228 168.705311 
L 288.250343 166.899253 
L 290.807398 164.274993 
L 294.277686 160.357709 
L 303.044732 150.323102 
L 306.697667 146.556536 
L 309.985309 143.47927 
L 313.272951 140.708782 
L 316.560593 138.235338 
L 319.848235 136.038503 
L 323.318524 133.991614 
L 326.971459 132.104796 
L 330.807041 130.38117 
L 334.82527 128.818326 
L 339.208793 127.353215 
L 343.957609 126.001565 
L 349.254366 124.731011 
L 355.099062 123.563048 
L 361.674346 122.481467 
L 369.162864 121.482306 
L 369.162864 121.482306 
" clip-path="url(#p622d0fa64d)" style="fill: none; stroke: #000000; stroke-width: 0.7; stroke-linecap: square"/>
   </g>
   <g id="text_1">
    <!-- $t$ -->
    <g transform="translate(168.452323 149.58504)scale(0.16 -0.16)">
     <defs>
      <path id="CMMI12-74" d="M 1286 2566 
L 1875 2566 
C 1997 2566 2061 2566 2061 2681 
C 2061 2752 2022 2752 1894 2752 
L 1331 2752 
L 1568 3664 
C 1594 3752 1594 3764 1594 3808 
C 1594 3910 1510 3968 1427 3968 
C 1376 3968 1229 3948 1178 3746 
L 928 2752 
L 326 2752 
C 198 2752 141 2752 141 2630 
C 141 2566 186 2566 307 2566 
L 877 2566 
L 454 881 
C 403 657 384 593 384 510 
C 384 210 595 -64 954 -64 
C 1600 -64 1946 868 1946 913 
C 1946 951 1920 970 1882 970 
C 1869 970 1843 970 1830 944 
C 1824 938 1818 932 1773 830 
C 1638 510 1344 64 973 64 
C 781 64 768 223 768 364 
C 768 370 768 491 787 568 
L 1286 2566 
z
" transform="scale(0.015625)"/>
     </defs>
     <use xlink:href="#CMMI12-74" transform="scale(0.996264)"/>
    </g>
   </g>
   <g id="text_2">
    <!-- $x^i$ -->
    <g transform="translate(277.9308 263.62512)scale(0.16 -0.16)">
     <defs>
      <path id="CMMI12-78" d="M 3034 2624 
C 2829 2585 2752 2431 2752 2310 
C 2752 2156 2874 2105 2963 2105 
C 3155 2105 3290 2271 3290 2444 
C 3290 2694 2982 2816 2714 2816 
C 2323 2816 2106 2451 2048 2329 
C 1901 2790 1504 2816 1389 2816 
C 736 2816 390 1993 390 1849 
C 390 1823 416 1790 461 1790 
C 512 1790 525 1829 538 1855 
C 755 2572 1184 2687 1370 2687 
C 1658 2687 1715 2438 1715 2284 
C 1715 2143 1677 1993 1600 1678 
L 1382 778 
C 1286 390 1101 64 762 64 
C 730 64 570 64 435 126 
C 666 166 717 358 717 435 
C 717 563 621 640 499 640 
C 346 640 179 505 179 300 
C 179 57 480 -64 755 -64 
C 1062 -64 1280 153 1414 415 
C 1517 64 1837 -64 2074 -64 
C 2726 -64 3072 751 3072 896 
C 3072 929 3046 955 3008 955 
C 2950 955 2944 922 2925 870 
C 2752 300 2381 64 2093 64 
C 1869 64 1747 204 1747 467 
C 1747 607 1773 712 1875 1146 
L 2099 2039 
C 2195 2425 2413 2687 2707 2687 
C 2720 2687 2899 2687 3034 2624 
z
" transform="scale(0.015625)"/>
      <path id="CMMI12-69" d="M 1811 913 
C 1811 945 1786 970 1747 970 
C 1690 970 1683 951 1651 842 
C 1485 261 1222 64 1011 64 
C 934 64 845 83 845 274 
C 845 447 922 638 992 830 
L 1440 2017 
C 1459 2068 1504 2183 1504 2305 
C 1504 2573 1312 2816 998 2816 
C 410 2816 173 1890 173 1838 
C 173 1813 198 1781 243 1781 
C 301 1781 307 1807 333 1896 
C 486 2432 730 2687 979 2687 
C 1037 2687 1146 2681 1146 2477 
C 1146 2311 1062 2100 1011 1960 
L 563 772 
C 525 670 486 568 486 453 
C 486 166 685 -64 992 -64 
C 1581 -64 1811 868 1811 913 
z
M 1760 4012 
C 1760 4108 1683 4224 1542 4224 
C 1395 4224 1229 4083 1229 3916 
C 1229 3756 1363 3705 1440 3705 
C 1613 3705 1760 3871 1760 4012 
z
" transform="scale(0.015625)"/>
     </defs>
     <use xlink:href="#CMMI12-78" transform="scale(0.996264)"/>
     <use xlink:href="#CMMI12-69" transform="translate(55.43406 36.153639)scale(0.697382)"/>
    </g>
   </g>
   <g id="text_3">
    <!-- $\Sigma_0$ -->
    <g transform="translate(373.724467 229.413096)scale(0.16 -0.16)">
     <defs>
      <path id="CMR17-6" d="M 2067 2096 
C 2112 2147 2112 2160 2112 2179 
C 2112 2204 2086 2243 2080 2255 
L 819 4185 
L 2368 4185 
C 3430 4185 3750 3956 3859 2943 
L 3974 2943 
L 3821 4352 
L 435 4352 
C 301 4352 294 4345 294 4211 
L 1773 1943 
L 346 121 
C 301 64 301 57 301 44 
C 301 0 339 0 435 0 
L 3821 0 
L 3974 1459 
L 3859 1459 
C 3757 427 3392 217 2355 217 
L 589 217 
L 2067 2096 
z
" transform="scale(0.015625)"/>
      <path id="CMR17-30" d="M 2688 2038 
C 2688 2430 2682 3099 2413 3613 
C 2176 4063 1798 4224 1466 4224 
C 1158 4224 768 4082 525 3620 
C 269 3137 243 2539 243 2038 
C 243 1671 250 1112 448 623 
C 723 -39 1216 -128 1466 -128 
C 1760 -128 2208 -7 2470 604 
C 2662 1048 2688 1568 2688 2038 
z
M 1466 -26 
C 1056 -26 813 328 723 816 
C 653 1196 653 1749 653 2109 
C 653 2604 653 3015 736 3407 
C 858 3954 1216 4121 1466 4121 
C 1728 4121 2067 3947 2189 3420 
C 2272 3054 2278 2623 2278 2109 
C 2278 1691 2278 1176 2202 797 
C 2067 96 1690 -26 1466 -26 
z
" transform="scale(0.015625)"/>
     </defs>
     <use xlink:href="#CMR17-6" transform="scale(0.996264)"/>
     <use xlink:href="#CMR17-30" transform="translate(66.509881 -14.943915)scale(0.697382)"/>
    </g>
   </g>
   <g id="text_4">
    <!-- $\Sigma_1$ -->
    <g transform="translate(373.724467 195.201072)scale(0.16 -0.16)">
     <defs>
      <path id="CMR17-31" d="M 1702 4083 
C 1702 4217 1696 4224 1606 4224 
C 1357 3927 979 3833 621 3820 
C 602 3820 570 3820 563 3808 
C 557 3795 557 3782 557 3648 
C 755 3648 1088 3686 1344 3839 
L 1344 467 
C 1344 243 1331 166 781 166 
L 589 166 
L 589 0 
C 896 6 1216 12 1523 12 
C 1830 12 2150 6 2458 0 
L 2458 166 
L 2266 166 
C 1715 166 1702 236 1702 467 
L 1702 4083 
z
" transform="scale(0.015625)"/>
     </defs>
     <use xlink:href="#CMR17-6" transform="scale(0.996264)"/>
     <use xlink:href="#CMR17-31" transform="translate(66.509881 -14.943915)scale(0.697382)"/>
    </g>
   </g>
   <g id="text_5">
    <!-- $\Sigma_2$ -->
    <g transform="translate(373.724467 160.989048)scale(0.16 -0.16)">
     <defs>
      <path id="CMR17-32" d="M 2669 990 
L 2554 990 
C 2490 537 2438 460 2413 422 
C 2381 371 1920 371 1830 371 
L 602 371 
C 832 620 1280 1073 1824 1596 
C 2214 1966 2669 2400 2669 3033 
C 2669 3788 2067 4224 1395 4224 
C 691 4224 262 3603 262 3027 
C 262 2777 448 2745 525 2745 
C 589 2745 781 2783 781 3007 
C 781 3206 614 3264 525 3264 
C 486 3264 448 3257 422 3244 
C 544 3788 915 4057 1306 4057 
C 1862 4057 2227 3616 2227 3033 
C 2227 2477 1901 1998 1536 1583 
L 262 147 
L 262 0 
L 2515 0 
L 2669 990 
z
" transform="scale(0.015625)"/>
     </defs>
     <use xlink:href="#CMR17-6" transform="scale(0.996264)"/>
     <use xlink:href="#CMR17-32" transform="translate(66.509881 -14.943915)scale(0.697382)"/>
    </g>
   </g>
   <g id="text_6">
    <!-- $\Sigma_3$ -->
    <g transform="translate(373.724467 126.777024)scale(0.16 -0.16)">
     <defs>
      <path id="CMR17-33" d="M 1414 2176 
C 1984 2176 2234 1673 2234 1094 
C 2234 322 1824 25 1453 25 
C 1114 25 563 193 390 691 
C 422 678 454 678 486 678 
C 640 678 755 780 755 947 
C 755 1132 614 1216 486 1216 
C 378 1216 211 1164 211 927 
C 211 335 787 -128 1466 -128 
C 2176 -128 2720 432 2720 1087 
C 2720 1718 2208 2176 1600 2246 
C 2086 2347 2554 2776 2554 3353 
C 2554 3856 2048 4224 1472 4224 
C 890 4224 378 3862 378 3347 
C 378 3123 544 3084 627 3084 
C 762 3084 877 3167 877 3334 
C 877 3500 762 3584 627 3584 
C 602 3584 570 3584 544 3571 
C 730 3999 1235 4076 1459 4076 
C 1683 4076 2106 3966 2106 3347 
C 2106 3167 2080 2851 1862 2574 
C 1670 2329 1453 2316 1242 2297 
C 1210 2297 1062 2284 1037 2284 
C 992 2278 966 2272 966 2227 
C 966 2182 973 2176 1101 2176 
L 1414 2176 
z
" transform="scale(0.015625)"/>
     </defs>
     <use xlink:href="#CMR17-6" transform="scale(0.996264)"/>
     <use xlink:href="#CMR17-33" transform="translate(66.509881 -14.943915)scale(0.697382)"/>
    </g>
   </g>
   <g id="text_7">
    <!-- $\Sigma_4$ -->
    <g transform="translate(373.724467 92.565)scale(0.16 -0.16)">
     <defs>
      <path id="CMR17-34" d="M 2150 4147 
C 2150 4281 2144 4288 2029 4288 
L 128 1254 
L 128 1088 
L 1779 1088 
L 1779 460 
C 1779 230 1766 166 1318 166 
L 1197 166 
L 1197 0 
C 1402 12 1747 12 1965 12 
C 2182 12 2528 12 2733 0 
L 2733 166 
L 2611 166 
C 2163 166 2150 230 2150 460 
L 2150 1088 
L 2803 1088 
L 2803 1254 
L 2150 1254 
L 2150 4147 
z
M 1798 3723 
L 1798 1254 
L 256 1254 
L 1798 3723 
z
" transform="scale(0.015625)"/>
     </defs>
     <use xlink:href="#CMR17-6" transform="scale(0.996264)"/>
     <use xlink:href="#CMR17-34" transform="translate(66.509881 -14.943915)scale(0.697382)"/>
    </g>
   </g>
   <g id="text_8">
    <!-- $Singularity$ -->
    <g transform="translate(289.334808 58.352976)scale(0.16 -0.16)">
     <defs>
      <path id="CMMI12-53" d="M 4064 4422 
C 4064 4480 4019 4480 4006 4480 
C 3981 4480 3974 4473 3898 4377 
C 3859 4332 3597 4002 3590 3996 
C 3379 4409 2957 4480 2688 4480 
C 1875 4480 1139 3742 1139 3024 
C 1139 2547 1427 2268 1741 2160 
C 1811 2134 2189 2033 2381 1988 
C 2707 1899 2790 1874 2925 1734 
C 2950 1702 3078 1556 3078 1258 
C 3078 667 2528 57 1888 57 
C 1363 57 781 279 781 991 
C 781 1112 806 1264 826 1328 
C 826 1347 832 1378 832 1391 
C 832 1417 819 1448 768 1448 
C 710 1448 704 1436 678 1328 
L 352 25 
C 352 19 326 -64 326 -71 
C 326 -128 378 -128 390 -128 
C 416 -128 422 -122 499 -26 
L 794 356 
C 947 127 1280 -128 1875 -128 
C 2701 -128 3456 667 3456 1461 
C 3456 1728 3392 1963 3149 2198 
C 3014 2331 2899 2363 2310 2516 
C 1882 2630 1824 2649 1709 2751 
C 1600 2859 1517 3011 1517 3227 
C 1517 3761 2061 4307 2669 4307 
C 3296 4307 3590 3926 3590 3322 
C 3590 3157 3558 2986 3558 2960 
C 3558 2903 3610 2903 3629 2903 
C 3686 2903 3693 2922 3718 3024 
L 4064 4422 
z
" transform="scale(0.015625)"/>
      <path id="CMMI12-6e" d="M 1318 1870 
C 1331 1909 1491 2228 1728 2432 
C 1894 2585 2112 2687 2362 2687 
C 2618 2687 2707 2496 2707 2241 
C 2707 1877 2445 1149 2317 804 
C 2259 651 2227 568 2227 453 
C 2227 166 2426 -64 2733 -64 
C 3328 -64 3552 874 3552 913 
C 3552 945 3526 970 3488 970 
C 3430 970 3424 951 3392 842 
C 3245 319 3002 64 2752 64 
C 2688 64 2586 70 2586 274 
C 2586 434 2656 625 2694 715 
C 2822 1066 3091 1781 3091 2145 
C 3091 2528 2867 2816 2381 2816 
C 1811 2816 1510 2413 1395 2253 
C 1376 2617 1114 2816 832 2816 
C 627 2816 486 2694 378 2477 
C 262 2247 173 1864 173 1838 
C 173 1813 198 1781 243 1781 
C 294 1781 301 1787 339 1934 
C 442 2324 557 2687 813 2687 
C 960 2687 1011 2585 1011 2394 
C 1011 2253 947 2004 902 1807 
L 723 1117 
C 698 996 627 708 595 593 
C 550 427 480 127 480 95 
C 480 6 550 -64 646 -64 
C 723 -64 813 -26 864 70 
C 877 102 934 325 966 453 
L 1107 1028 
L 1318 1870 
z
" transform="scale(0.015625)"/>
      <path id="CMMI12-67" d="M 2163 811 
C 2138 708 2125 683 2042 587 
C 1779 249 1510 128 1312 128 
C 1101 128 902 293 902 734 
C 902 1072 1094 1787 1235 2075 
C 1421 2432 1709 2687 1978 2687 
C 2400 2687 2483 2164 2483 2126 
L 2464 2036 
L 2163 811 
z
M 2560 2394 
C 2477 2579 2298 2816 1978 2816 
C 1280 2816 486 1941 486 989 
C 486 325 890 0 1299 0 
C 1638 0 1939 268 2054 396 
L 1914 -176 
C 1824 -520 1786 -677 1555 -896 
C 1293 -1152 1050 -1152 909 -1152 
C 717 -1152 557 -1140 397 -1090 
C 602 -1034 653 -858 653 -789 
C 653 -689 576 -589 435 -589 
C 282 -589 115 -714 115 -921 
C 115 -1178 378 -1280 922 -1280 
C 1747 -1280 2176 -758 2259 -420 
L 2970 2426 
C 2989 2502 2989 2515 2989 2528 
C 2989 2617 2918 2688 2822 2688 
C 2669 2688 2579 2560 2560 2388 
L 2560 2394 
z
" transform="scale(0.015625)"/>
      <path id="CMMI12-75" d="M 2182 370 
C 2266 12 2573 -64 2726 -64 
C 2931 -64 3085 70 3187 287 
C 3296 517 3379 893 3379 913 
C 3379 944 3354 970 3315 970 
C 3258 970 3251 938 3226 842 
C 3110 402 2995 64 2739 64 
C 2547 64 2547 274 2547 357 
C 2547 504 2566 568 2630 836 
C 2675 1008 2720 1181 2758 1359 
L 3021 2400 
C 3066 2560 3066 2572 3066 2591 
C 3066 2687 2989 2752 2893 2752 
C 2707 2752 2662 2591 2624 2432 
C 2560 2183 2214 810 2170 587 
C 2163 587 1914 64 1446 64 
C 1114 64 1050 351 1050 587 
C 1050 951 1229 1462 1395 1890 
C 1472 2094 1504 2177 1504 2305 
C 1504 2579 1306 2816 998 2816 
C 410 2816 173 1890 173 1838 
C 173 1813 198 1781 243 1781 
C 301 1781 307 1807 333 1896 
C 486 2445 736 2687 979 2687 
C 1043 2687 1146 2681 1146 2477 
C 1146 2311 1075 2126 979 1883 
C 698 1123 666 881 666 689 
C 666 38 1158 -64 1421 -64 
C 1830 -64 2054 217 2182 370 
z
" transform="scale(0.015625)"/>
      <path id="CMMI12-6c" d="M 1626 4255 
C 1632 4281 1645 4319 1645 4351 
C 1645 4416 1581 4416 1568 4416 
C 1562 4416 1331 4396 1216 4383 
C 1107 4377 1011 4364 896 4358 
C 742 4345 698 4339 698 4223 
C 698 4159 762 4159 826 4159 
C 1152 4159 1152 4102 1152 4039 
C 1152 4013 1152 4001 1120 3886 
L 326 731 
C 307 661 294 610 294 509 
C 294 191 531 -64 858 -64 
C 1069 -64 1210 76 1312 273 
C 1421 483 1510 884 1510 909 
C 1510 941 1485 967 1446 967 
C 1389 967 1382 935 1357 839 
C 1242 401 1126 64 870 64 
C 678 64 678 267 678 356 
C 678 382 678 515 723 693 
L 1626 4255 
z
" transform="scale(0.015625)"/>
      <path id="CMMI12-61" d="M 1926 759 
C 1894 651 1894 638 1805 517 
C 1664 338 1382 64 1082 64 
C 819 64 672 300 672 676 
C 672 1028 870 1743 992 2011 
C 1210 2458 1510 2687 1760 2687 
C 2182 2687 2266 2164 2266 2113 
C 2266 2107 2246 2024 2240 2011 
L 1926 759 
z
M 2336 2394 
C 2266 2560 2093 2816 1760 2816 
C 1037 2816 256 1883 256 938 
C 256 306 627 -64 1062 -64 
C 1414 -64 1715 210 1894 421 
C 1958 44 2259 -64 2451 -64 
C 2643 -64 2797 51 2912 280 
C 3014 496 3104 885 3104 910 
C 3104 942 3078 968 3040 968 
C 2982 968 2976 936 2950 840 
C 2854 465 2733 64 2470 64 
C 2285 64 2272 229 2272 356 
C 2272 503 2291 573 2349 821 
C 2394 980 2426 1120 2477 1305 
C 2714 2260 2771 2489 2771 2528 
C 2771 2617 2701 2688 2605 2688 
C 2400 2688 2349 2464 2336 2388 
L 2336 2394 
z
" transform="scale(0.015625)"/>
      <path id="CMMI12-72" d="M 2490 2633 
C 2291 2598 2189 2457 2189 2316 
C 2189 2163 2310 2111 2400 2111 
C 2579 2111 2726 2265 2726 2457 
C 2726 2651 2528 2816 2208 2816 
C 1952 2816 1658 2700 1389 2335 
C 1344 2660 1088 2816 832 2816 
C 582 2816 454 2642 378 2508 
C 269 2278 173 1892 173 1860 
C 173 1834 198 1801 243 1801 
C 294 1801 301 1808 339 1957 
C 435 2342 557 2687 813 2687 
C 966 2687 1011 2604 1011 2419 
C 1011 2278 947 2028 902 1827 
L 723 1130 
C 698 1007 627 716 595 600 
C 550 432 480 128 480 96 
C 480 6 550 -64 646 -64 
C 717 -64 838 -20 877 109 
C 896 160 1133 1136 1171 1285 
C 1203 1427 1242 1562 1274 1705 
C 1299 1795 1325 1898 1344 1982 
C 1363 2040 1536 2355 1696 2495 
C 1773 2566 1939 2687 2202 2687 
C 2304 2687 2406 2674 2490 2633 
z
" transform="scale(0.015625)"/>
      <path id="CMMI12-79" d="M 1683 -673 
C 1510 -921 1261 -1152 947 -1152 
C 870 -1152 563 -1139 467 -826 
C 486 -833 518 -833 531 -833 
C 723 -833 851 -666 851 -519 
C 851 -372 730 -320 634 -320 
C 531 -320 307 -397 307 -711 
C 307 -1050 582 -1280 947 -1280 
C 1587 -1280 2234 -673 2413 -7 
L 3040 2483 
C 3046 2515 3059 2553 3059 2591 
C 3059 2687 2982 2752 2886 2752 
C 2829 2752 2694 2726 2643 2534 
L 2170 657 
C 2138 542 2138 530 2086 459 
C 1958 281 1747 64 1440 64 
C 1082 64 1050 415 1050 587 
C 1050 951 1222 1443 1395 1902 
C 1466 2087 1504 2177 1504 2305 
C 1504 2573 1312 2816 998 2816 
C 410 2816 173 1890 173 1838 
C 173 1813 198 1781 243 1781 
C 301 1781 307 1807 333 1896 
C 486 2432 730 2687 979 2687 
C 1037 2687 1146 2687 1146 2477 
C 1146 2311 1075 2126 979 1883 
C 666 1047 666 836 666 683 
C 666 76 1101 -64 1421 -64 
C 1606 -64 1837 -7 2061 230 
L 2067 223 
C 1971 -141 1907 -359 1683 -673 
z
" transform="scale(0.015625)"/>
     </defs>
     <use xlink:href="#CMMI12-53" transform="scale(0.996264)"/>
     <use xlink:href="#CMMI12-69" transform="translate(65.794439 0)scale(0.996264)"/>
     <use xlink:href="#CMMI12-6e" transform="translate(99.073041 0)scale(0.996264)"/>
     <use xlink:href="#CMMI12-67" transform="translate(157.303088 0)scale(0.996264)"/>
     <use xlink:href="#CMMI12-75" transform="translate(207.588578 0)scale(0.996264)"/>
     <use xlink:href="#CMMI12-6c" transform="translate(263.108907 0)scale(0.996264)"/>
     <use xlink:href="#CMMI12-61" transform="translate(294.357311 0)scale(0.996264)"/>
     <use xlink:href="#CMMI12-72" transform="translate(345.565169 0)scale(0.996264)"/>
     <use xlink:href="#CMMI12-69" transform="translate(392.235781 0)scale(0.996264)"/>
     <use xlink:href="#CMMI12-74" transform="translate(425.514383 0)scale(0.996264)"/>
     <use xlink:href="#CMMI12-79" transform="translate(460.740713 0)scale(0.996264)"/>
    </g>
   </g>
   <g id="patch_2">
    <path d="M 186.698736 250.218415 
Q 186.698736 155.285483 186.698736 61.470584 
" style="fill: none; stroke: #000000; stroke-linecap: round"/>
    <path d="M 184.698736 65.470584 
L 186.698736 61.470584 
L 188.698736 65.470584 
" style="fill: none; stroke: #000000; stroke-linecap: round"/>
   </g>
   <g id="patch_3">
    <path d="M 177.297425 240.817104 
Q 272.230357 240.817104 366.045256 240.817104 
" style="fill: none; stroke: #000000; stroke-linecap: round"/>
    <path d="M 362.045256 238.817104 
L 366.045256 240.817104 
L 362.045256 242.817104 
" style="fill: none; stroke: #000000; stroke-linecap: round"/>
   </g>
  </g>
 </g>
 <defs>
  <clipPath id="p622d0fa64d">
   <rect x="163.89072" y="35.54496" width="228.08016" height="228.08016"/>
  </clipPath>
 </defs>
</svg>
